<svg xmlns="http://www.w3.org/2000/svg" viewBox="0 0 32 32">
  <style type="text/css">
    .Blue{fill:#1177D7;}
  </style>
  <path class="Blue"  d="M 16 0.5 C 7.433594 0.5 0.5 7.433594 0.5 16 C 0.5 24.566406 7.433594 31.5 16 31.5 C 19.007812 31.5 21.957031 30.617188 24.464844 28.984375 C 25.214844 28.496094 25.378906 27.46875 24.808594 26.773438 L 24.175781 26 C 23.695312 25.414062 22.851562 25.269531 22.214844 25.675781 C 20.371094 26.859375 18.207031 27.5 16 27.5 C 9.660156 27.5 4.5 22.339844 4.5 16 C 4.5 9.660156 9.660156 4.5 16 4.5 C 22.257812 4.5 27.5 8.101562 27.5 14.5 C 27.5 16.925781 26.183594 19.484375 23.863281 19.730469 C 22.78125 19.703125 22.808594 18.925781 23.023438 17.855469 L 24.488281 10.285156 C 24.664062 9.359375 23.957031 8.5 23.015625 8.5 L 20.203125 8.5 C 19.773438 8.5 19.410156 8.824219 19.363281 9.25 L 19.363281 9.253906 C 18.445312 8.136719 16.835938 7.894531 15.613281 7.894531 C 10.953125 7.894531 7 11.785156 7 17.359375 C 7 21.441406 9.300781 23.976562 13 23.976562 C 14.6875 23.976562 16.585938 23 17.6875 21.582031 C 18.28125 23.714844 20.226562 23.714844 22.105469 23.714844 C 28.914062 23.714844 31.5 19.238281 31.5 14.5 C 31.5 5.976562 24.625 0.5 16 0.5 Z M 14.644531 19.527344 C 13.253906 19.527344 12.390625 18.550781 12.390625 16.980469 C 12.390625 14.167969 14.3125 12.433594 16.054688 12.433594 C 17.449219 12.433594 18.28125 13.386719 18.28125 14.980469 C 18.28125 17.796875 16.164062 19.527344 14.644531 19.527344 Z M 14.644531 19.527344 "/>
</svg>
