<?xml version='1.0' encoding='UTF-8'?>
<svg x="0px" y="0px" viewBox="0 0 32 32" version="1.1" xmlns="http://www.w3.org/2000/svg" xmlns:xlink="http://www.w3.org/1999/xlink" xml:space="preserve" id="Layer_1" style="enable-background:new 0 0 32 32">
  <style type="text/css">
	.Blue{fill:#1177D7;}
</style>
  <path d="M21.6,14.4c0.5,0.3,0.5,0.8,0,1.1L12,22.7v2.6c0,0.6,0.4,0.8,0.9,0.5l12.7-10.4c0.5-0.3,0.5-0.7,0-1.1  L12.9,4.1C12.4,3.8,12,4,12,4.6v2.6L21.6,14.4z" class="Blue" />
  <path d="M17.6,15.5c0.5-0.3,0.5-0.8,0-1.1L2.9,4.1C2.4,3.8,2,4,2,4.6v20.7c0,0.6,0.4,0.8,0.9,0.5L17.6,15.5z" class="Blue" />
  <path d="M29,4h2c0.6,0,1,0.4,1,1v20c0,0.6-0.4,1-1,1h-2c-0.6,0-1-0.4-1-1V5C28,4.4,28.4,4,29,4z" class="Blue" />
</svg>